# WaveFront *.obj file (generated by Autodesk ATF)

mtllib 91636d11-7e42-41f2-bf09-8e9a56e56636.mtl

g Body1

v 100.000000 83.000000 0.000000
v 0.000000 83.000000 0.000000
v 0.000000 83.000000 1.500000
v 100.000000 83.000000 1.500000
v 100.000000 0.000000 0.000000
v 100.000000 0.000000 1.500000
v 0.000000 0.000000 0.000000
v 0.000000 0.000000 1.500000
vt 0.000000 0.000000 0.000000
vt 100.000000 0.000000 0.000000
vt 0.000000 1.500000 0.000000
vt 100.000000 1.500000 0.000000
vt 0.000000 0.000000 0.000000
vt 83.000000 0.000000 0.000000
vt 0.000000 1.500000 0.000000
vt 83.000000 1.500000 0.000000
vt 0.000000 0.000000 0.000000
vt 100.000000 0.000000 0.000000
vt 0.000000 1.500000 0.000000
vt 100.000000 1.500000 0.000000
vt 0.000000 0.000000 0.000000
vt 83.000000 0.000000 0.000000
vt 0.000000 1.500000 0.000000
vt 83.000000 1.500000 0.000000
vt -50.000000 -41.500000 0.000000
vt 50.000000 -41.500000 0.000000
vt -50.000000 41.500000 0.000000
vt 50.000000 41.500000 0.000000
vt 50.000000 41.500000 0.000000
vt -50.000000 41.500000 0.000000
vt 50.000000 -41.500000 0.000000
vt -50.000000 -41.500000 0.000000
vn 0.000000 1.000000 -0.000000
vn 0.000000 1.000000 -0.000000
vn 0.000000 1.000000 -0.000000
vn 0.000000 1.000000 -0.000000
vn 1.000000 0.000000 0.000000
vn 1.000000 0.000000 0.000000
vn 1.000000 0.000000 0.000000
vn 1.000000 0.000000 0.000000
vn 0.000000 -1.000000 0.000000
vn 0.000000 -1.000000 0.000000
vn 0.000000 -1.000000 0.000000
vn 0.000000 -1.000000 0.000000
vn -1.000000 0.000000 0.000000
vn -1.000000 0.000000 0.000000
vn -1.000000 0.000000 0.000000
vn -1.000000 0.000000 0.000000
vn 0.000000 0.000000 1.000000
vn 0.000000 0.000000 1.000000
vn 0.000000 0.000000 1.000000
vn 0.000000 0.000000 1.000000
vn -0.000000 -0.000000 -1.000000
vn -0.000000 -0.000000 -1.000000
vn -0.000000 -0.000000 -1.000000
vn -0.000000 -0.000000 -1.000000
usemtl Oak_-_Semigloss
f 1/1/1 2/2/2 4/3/3
f 4/3/3 2/2/2 3/4/4
f 5/5/5 1/6/6 6/7/7
f 6/7/7 1/6/6 4/8/8
f 7/9/9 5/10/10 8/11/11
f 8/11/11 5/10/10 6/12/12
f 2/13/13 7/14/14 3/15/15
f 3/15/15 7/14/14 8/16/16
f 8/17/17 6/18/18 3/19/19
f 3/19/19 6/18/18 4/20/20
f 2/21/21 1/22/22 7/23/23
f 7/23/23 1/22/22 5/24/24

g Body2

v 64.913721 49.995222 1.500000
v 34.913721 49.995222 1.500000
v 34.913721 49.995222 3.500000
v 64.913721 49.995222 3.500000
v 64.913721 1.995222 1.500000
v 64.913721 1.995222 3.500000
v 34.913721 1.995222 1.500000
v 34.913721 1.995222 3.500000
vt 0.000000 0.000000 0.000000
vt 30.000000 0.000000 0.000000
vt 0.000000 2.000000 0.000000
vt 30.000000 2.000000 0.000000
vt 0.000000 0.000000 0.000000
vt 48.000000 0.000000 0.000000
vt 0.000000 2.000000 0.000000
vt 48.000000 2.000000 0.000000
vt 0.000000 0.000000 0.000000
vt 30.000000 0.000000 0.000000
vt 0.000000 2.000000 0.000000
vt 30.000000 2.000000 0.000000
vt 0.000000 0.000000 0.000000
vt 48.000000 0.000000 0.000000
vt 0.000000 2.000000 0.000000
vt 48.000000 2.000000 0.000000
vt -15.000000 -24.000000 0.000000
vt 15.000000 -24.000000 0.000000
vt -15.000000 24.000000 0.000000
vt 15.000000 24.000000 0.000000
vt 15.000000 24.000000 0.000000
vt -15.000000 24.000000 0.000000
vt 15.000000 -24.000000 0.000000
vt -15.000000 -24.000000 0.000000
vn 0.000000 1.000000 0.000000
vn 0.000000 1.000000 0.000000
vn 0.000000 1.000000 0.000000
vn 0.000000 1.000000 0.000000
vn 1.000000 0.000000 0.000000
vn 1.000000 0.000000 0.000000
vn 1.000000 0.000000 0.000000
vn 1.000000 0.000000 0.000000
vn 0.000000 -1.000000 0.000000
vn 0.000000 -1.000000 0.000000
vn 0.000000 -1.000000 0.000000
vn 0.000000 -1.000000 0.000000
vn -1.000000 0.000000 0.000000
vn -1.000000 0.000000 0.000000
vn -1.000000 0.000000 0.000000
vn -1.000000 0.000000 0.000000
vn 0.000000 0.000000 1.000000
vn 0.000000 0.000000 1.000000
vn 0.000000 0.000000 1.000000
vn 0.000000 0.000000 1.000000
vn -0.000000 -0.000000 -1.000000
vn -0.000000 -0.000000 -1.000000
vn -0.000000 -0.000000 -1.000000
vn -0.000000 -0.000000 -1.000000
f 9/25/25 10/26/26 12/27/27
f 12/27/27 10/26/26 11/28/28
f 13/29/29 9/30/30 14/31/31
f 14/31/31 9/30/30 12/32/32
f 15/33/33 13/34/34 16/35/35
f 16/35/35 13/34/34 14/36/36
f 10/37/37 15/38/38 11/39/39
f 11/39/39 15/38/38 16/40/40
f 16/41/41 14/42/42 11/43/43
f 11/43/43 14/42/42 12/44/44
f 10/45/45 9/46/46 15/47/47
f 15/47/47 9/46/46 13/48/48

g Body3

v 87.631359 78.422519 1.500000
v 67.631359 78.422519 1.500000
v 67.631359 78.422519 3.500000
v 87.631359 78.422519 3.500000
v 87.631359 50.422519 1.500000
v 87.631359 50.422519 3.500000
v 67.631359 50.422519 1.500000
v 67.631359 50.422519 3.500000
vt 0.000000 0.000000 0.000000
vt 20.000000 0.000000 0.000000
vt 0.000000 2.000000 0.000000
vt 20.000000 2.000000 0.000000
vt 0.000000 0.000000 0.000000
vt 28.000000 0.000000 0.000000
vt 0.000000 2.000000 0.000000
vt 28.000000 2.000000 0.000000
vt 0.000000 0.000000 0.000000
vt 20.000000 0.000000 0.000000
vt 0.000000 2.000000 0.000000
vt 20.000000 2.000000 0.000000
vt 0.000000 0.000000 0.000000
vt 28.000000 0.000000 0.000000
vt 0.000000 2.000000 0.000000
vt 28.000000 2.000000 0.000000
vt -10.000000 -14.000000 0.000000
vt 10.000000 -14.000000 0.000000
vt -10.000000 14.000000 0.000000
vt 10.000000 14.000000 0.000000
vt 10.000000 14.000000 0.000000
vt -10.000000 14.000000 0.000000
vt 10.000000 -14.000000 0.000000
vt -10.000000 -14.000000 0.000000
vn 0.000000 1.000000 0.000000
vn 0.000000 1.000000 0.000000
vn 0.000000 1.000000 0.000000
vn 0.000000 1.000000 0.000000
vn 1.000000 0.000000 0.000000
vn 1.000000 0.000000 0.000000
vn 1.000000 0.000000 0.000000
vn 1.000000 0.000000 0.000000
vn 0.000000 -1.000000 0.000000
vn 0.000000 -1.000000 0.000000
vn 0.000000 -1.000000 0.000000
vn 0.000000 -1.000000 0.000000
vn -1.000000 0.000000 0.000000
vn -1.000000 0.000000 0.000000
vn -1.000000 0.000000 0.000000
vn -1.000000 0.000000 0.000000
vn 0.000000 0.000000 1.000000
vn 0.000000 0.000000 1.000000
vn 0.000000 0.000000 1.000000
vn 0.000000 0.000000 1.000000
vn -0.000000 -0.000000 -1.000000
vn -0.000000 -0.000000 -1.000000
vn -0.000000 -0.000000 -1.000000
vn -0.000000 -0.000000 -1.000000
f 17/49/49 18/50/50 20/51/51
f 20/51/51 18/50/50 19/52/52
f 21/53/53 17/54/54 22/55/55
f 22/55/55 17/54/54 20/56/56
f 23/57/57 21/58/58 24/59/59
f 24/59/59 21/58/58 22/60/60
f 18/61/61 23/62/62 19/63/63
f 19/63/63 23/62/62 24/64/64
f 24/65/65 22/66/66 19/67/67
f 19/67/67 22/66/66 20/68/68
f 18/69/69 17/70/70 23/71/71
f 23/71/71 17/70/70 21/72/72

# 24 vertices
# 72 texture params
# 72 normals
# 36 facets

# 3 groups
